<svg id="Layer_1" enable-background="new 0 0 511.499 511.499" height="512" viewBox="0 0 511.499 511.499" width="512" xmlns="http://www.w3.org/2000/svg"><g><g><path d="m449.848 511.499c-2.74 0-5.446-1.247-7.214-3.61l-187.579-250.789c-2.977-3.98-2.164-9.621 1.816-12.598s9.62-2.164 12.598 1.816l187.579 250.79c2.977 3.98 2.164 9.621-1.816 12.598-1.617 1.209-3.509 1.793-5.384 1.793z" fill="#373c41"/></g><g><path d="m288.847 236.285-76.467-19.246c-4.057-1.021-7.703-3.262-10.445-6.422l-56.631-65.235c-7.4-8.524-6.488-21.432 2.035-28.832 8.524-7.399 21.433-6.489 28.832 2.035l52.418 60.382 70.235 17.677c10.946 2.755 17.586 13.862 14.832 24.808-2.751 10.931-13.847 17.592-24.809 14.833z" fill="#8e4b33"/></g><g><path d="m66.872 509.218c-12.288-5.698-17.631-20.279-11.933-32.567l47.783-103.052-4.624-87.236s10.05-24.465 23.578-25.139c13.523-.67 25.042 9.746 25.716 23.274l4.621 92.705c.198 3.971-.572 7.931-2.245 11.538l-50.329 108.544c-5.697 12.286-20.278 17.631-32.567 11.933z" fill="#748488"/></g><g><path d="m196.712 489.105-10.299-117.983-31.415-93.419c-4.317-12.839 2.591-26.746 15.429-31.063 12.84-4.319 26.746 2.591 31.064 15.429l32.346 96.191c.62 1.841 1.018 3.749 1.187 5.684l10.554 120.896c1.178 13.494-8.806 25.387-22.3 26.565-13.555 1.182-25.393-8.863-26.566-22.3z" fill="#55696e"/></g><path d="m194.505 106.887-53.841-3.6c-16.674-1.115-31.095 11.499-32.21 28.173l-10.357 154.904 114.224 7.637 10.357-154.904c1.115-16.674-11.498-31.095-28.173-32.21z" fill="#ffda52"/><path d="m180.664.102c-24.683-1.65-46.031 17.021-47.682 41.705-1.65 24.683 17.021 46.031 41.705 47.681 24.683 1.651 46.031-17.021 47.682-41.705 1.651-24.683-17.021-46.031-41.705-47.681z" fill="#ba6746"/><g><path d="m247.846 273.286-70.771-43.539c-4.008-2.466-7.043-6.24-8.591-10.685l-11.315-32.484 16.798-17.046 22.604 5.897 8.121 23.315 64.573 39.726c9.614 5.915 12.613 18.503 6.698 28.117-5.931 9.641-18.528 12.598-28.117 6.699z" fill="#ba6746"/></g><g><path d="m196.571 175.43-17.452-50.105c-3.713-10.659-15.361-16.291-26.023-12.578-10.66 3.713-16.291 15.363-12.578 26.023l16.652 47.809z" fill="#f2c41b"/></g></g></svg>