<?xml version="1.0" encoding="iso-8859-1"?>
<!-- Generator: Adobe Illustrator 18.0.0, SVG Export Plug-In . SVG Version: 6.00 Build 0)  -->
<!DOCTYPE svg PUBLIC "-//W3C//DTD SVG 1.1//EN" "http://www.w3.org/Graphics/SVG/1.1/DTD/svg11.dtd">
<svg version="1.1" id="Capa_1" xmlns="http://www.w3.org/2000/svg" xmlns:xlink="http://www.w3.org/1999/xlink" x="0px" y="0px"
	 viewBox="0 0 297 297" style="enable-background:new 0 0 297 297;" xml:space="preserve">
<path d="M287,43.28H10c-5.522,0-10,4.478-10,10v155.813c0,5.522,4.478,10,10,10h86.573l-38.35,15.34
	c-5.128,2.052-7.622,7.871-5.571,12.999c2.052,5.128,7.872,7.618,12.999,5.571l82.849-33.14l82.849,33.14
	c1.218,0.487,2.475,0.718,3.711,0.718c3.968,0,7.724-2.379,9.288-6.289c2.051-5.128-0.443-10.947-5.571-12.999l-38.35-15.34H287
	c5.522,0,10-4.478,10-10V53.28C297,47.757,292.522,43.28,287,43.28z M277,63.28v116.254H20V63.28H277z M20,199.092v-5.559h257v5.559
	H20z"/>
<g>
</g>
<g>
</g>
<g>
</g>
<g>
</g>
<g>
</g>
<g>
</g>
<g>
</g>
<g>
</g>
<g>
</g>
<g>
</g>
<g>
</g>
<g>
</g>
<g>
</g>
<g>
</g>
<g>
</g>
</svg>
