<?xml version="1.0" encoding="iso-8859-1"?>
<!-- Generator: Adobe Illustrator 18.0.0, SVG Export Plug-In . SVG Version: 6.00 Build 0)  -->
<!DOCTYPE svg PUBLIC "-//W3C//DTD SVG 1.1//EN" "http://www.w3.org/Graphics/SVG/1.1/DTD/svg11.dtd">
<svg version="1.1" id="Capa_1" xmlns="http://www.w3.org/2000/svg" xmlns:xlink="http://www.w3.org/1999/xlink" x="0px" y="0px"
	 viewBox="0 0 297 297" style="enable-background:new 0 0 297 297;" xml:space="preserve">
<path d="M287,131.039h-20.777v-5.39c0-5.522-4.478-10-10-10h-39.39c-3.241-4.644-8.614-7.694-14.694-7.694h-68
	c-13.194,0-24.161,9.725-26.108,22.384H78.256c-5.638,0-10.224-4.586-10.224-10.224V73.826c0-5.638,4.586-10.225,10.224-10.225
	h29.655c1.54,13.109,12.712,23.316,26.228,23.316h68c6.08,0,11.454-3.051,14.695-7.694h39.389c5.522,0,10-4.478,10-10v-5.389H287
	c5.522,0,10-4.478,10-10s-4.478-10-10-10h-20.777v-5.389c0-5.522-4.478-10-10-10h-39.389c-3.24-4.644-8.614-7.694-14.695-7.694h-68
	c-13.355,0-24.421,9.966-26.169,22.85H78.256c-16.665,0-30.224,13.559-30.224,30.225v13.145H26.866
	C12.052,86.971,0,99.022,0,113.836v152.412c0,5.522,4.478,10,10,10s10-4.478,10-10V113.836c0-3.785,3.08-6.865,6.866-6.865h21.166
	v13.145c0,16.665,13.559,30.224,30.224,30.224h29.599c1.326,13.334,12.608,23.783,26.284,23.783h68c6.08,0,11.454-3.05,14.694-7.694
	h39.39c5.522,0,10-4.478,10-10v-5.389H287c5.522,0,10-4.478,10-10S292.522,131.039,287,131.039z M145.106,66.918V40.752h3.989
	v26.166H145.106z M246.223,59.224h-26.167V48.446h26.167V59.224z M200.056,66.918h-40.96V40.752h40.96V66.918z M127.723,47.168
	c0-3.538,2.878-6.416,6.416-6.416h0.968v26.166h-0.968c-3.538,0-6.416-2.878-6.416-6.416V47.168z M200.056,154.122h-40.96v-26.167
	h40.96V154.122z M149.096,154.122h-3.989v-26.167h3.989V154.122z M127.723,147.705v-13.333c0-3.538,2.878-6.417,6.416-6.417h0.968
	v26.167h-0.968C130.601,154.122,127.723,151.243,127.723,147.705z M246.223,146.428h-26.167v-10.778h26.167V146.428z"/>
<g>
</g>
<g>
</g>
<g>
</g>
<g>
</g>
<g>
</g>
<g>
</g>
<g>
</g>
<g>
</g>
<g>
</g>
<g>
</g>
<g>
</g>
<g>
</g>
<g>
</g>
<g>
</g>
<g>
</g>
</svg>
